<?xml version="1.0" standalone="no"?>
<!DOCTYPE svg PUBLIC "-//W3C//DTD SVG 20010904//EN"
 "http://www.w3.org/TR/2001/REC-SVG-20010904/DTD/svg10.dtd">
<svg version="1.0" xmlns="http://www.w3.org/2000/svg"
 width="860.000000pt" height="860.000000pt" viewBox="0 0 860.000000 860.000000"
 preserveAspectRatio="xMidYMid meet">

<g transform="translate(0.000000,860.000000) scale(0.100000,-0.100000)"
fill="#000000" stroke="none">
<path d="M3149 5633 c-21 -35 -23 -51 -26 -213 -2 -96 -6 -185 -8 -196 -6 -27
-67 -44 -150 -41 -48 2 -73 -4 -122 -27 -68 -31 -81 -56 -42 -77 12 -6 83 -16
158 -22 75 -7 142 -16 150 -21 11 -7 12 -138 9 -770 -2 -418 -1 -804 3 -856 6
-86 26 -196 45 -243 10 -26 47 -18 55 13 22 79 43 188 68 360 5 36 7 178 4
315 -3 138 -5 277 -3 310 3 70 3 78 2 514 -1 207 2 339 8 347 6 6 47 15 92 19
162 14 248 42 248 82 0 8 -15 20 -33 28 -39 16 -196 45 -247 45 -19 0 -40 4
-47 8 -8 5 -17 61 -24 152 -11 133 -15 151 -47 215 -54 111 -59 113 -93 58z"/>
<path d="M5760 5407 c0 -38 -36 -149 -70 -217 -39 -78 -67 -112 -126 -158 -49
-37 -116 -52 -249 -57 -192 -6 -257 -83 -277 -330 -11 -138 -29 -190 -80 -229
-28 -21 -46 -26 -91 -26 -47 0 -58 4 -67 21 -8 14 -11 99 -9 257 4 414 2 463
-16 525 -32 112 -74 56 -128 -173 -38 -160 -43 -296 -20 -552 l5 -66 -41 -22
c-78 -39 -78 -107 -1 -137 43 -17 58 -45 46 -86 -43 -147 -34 -599 19 -882 17
-92 31 -125 56 -125 19 0 19 -1 50 200 17 112 21 180 20 397 0 235 10 417 25
466 9 29 109 24 156 -8 43 -29 50 -49 72 -201 32 -212 67 -298 133 -330 24
-11 76 -21 138 -25 55 -4 116 -12 135 -17 77 -21 190 -63 246 -92 125 -65 260
-199 311 -307 23 -48 40 -63 55 -47 3 3 2 19 -3 37 -4 18 -15 61 -24 97 -38
153 -146 296 -270 358 -122 62 -218 102 -278 117 -116 30 -142 34 -198 35 -84
0 -86 4 -99 164 -14 177 -37 286 -61 286 -20 0 -17 40 5 81 14 24 27 62 31 84
3 22 10 60 15 85 5 25 14 91 21 148 7 59 18 107 26 113 7 7 50 13 96 15 91 3
177 16 222 34 46 17 133 109 167 175 35 69 55 143 63 241 3 38 8 93 10 122 3
31 1 52 -5 52 -5 0 -10 -10 -10 -23z"/>
<path d="M5977 5212 c-9 -10 -28 -48 -42 -85 -32 -87 -35 -187 -5 -217 38 -38
109 -38 130 0 6 11 11 65 12 120 1 94 -1 102 -28 146 -34 55 -45 61 -67 36z"/>
<path d="M1034 5091 c-111 -9 -145 -56 -86 -121 35 -40 82 -50 192 -43 65 4
89 3 95 -7 4 -7 9 -221 11 -474 1 -254 7 -524 14 -601 6 -77 11 -149 12 -160
8 -119 -13 -174 -67 -176 -16 -1 -52 -5 -80 -10 -63 -12 -206 5 -221 25 -5 8
-16 107 -22 220 -10 175 -17 236 -38 314 -2 6 -15 12 -28 12 -49 0 -52 -23
-55 -387 -2 -187 4 -218 53 -263 27 -25 30 -25 229 -28 260 -4 297 5 338 79
23 42 31 217 37 841 4 333 11 610 15 614 4 5 51 14 103 20 52 7 102 18 110 24
7 7 14 25 14 41 0 22 -8 34 -31 48 -26 16 -60 20 -217 25 -103 3 -214 8 -247
9 -33 2 -92 1 -131 -2z"/>
<path d="M1880 5066 c-43 -14 -62 -48 -48 -87 18 -52 50 -63 188 -69 l125 -5
2 -370 c1 -203 7 -455 13 -560 21 -321 21 -432 1 -457 -22 -26 -115 -43 -220
-40 -97 3 -142 24 -153 72 -17 69 -28 81 -72 78 l-41 -3 -8 -55 c-8 -49 -5
-63 16 -112 40 -90 48 -92 312 -84 241 7 251 10 287 72 27 48 39 329 39 894
-1 337 3 525 9 546 12 35 14 36 148 50 58 6 92 22 92 45 0 31 -33 69 -68 78
-59 15 -580 21 -622 7z"/>
<path d="M5943 4762 c-40 -31 -45 -64 -38 -272 12 -382 84 -755 146 -755 9 0
16 15 20 42 6 48 3 395 -6 733 -6 210 -8 227 -28 248 -24 26 -64 28 -94 4z"/>
<path d="M2543 4750 c-89 -20 -110 -60 -94 -185 6 -51 11 -235 11 -420 0 -378
0 -374 85 -435 l49 -35 131 0 c124 0 132 1 170 26 22 15 51 39 65 54 l25 27 7
381 c3 210 11 406 17 435 8 43 7 59 -6 86 -24 50 -111 87 -146 62 -25 -19 -39
-73 -25 -99 12 -23 5 -701 -8 -745 -15 -51 -133 -72 -170 -31 -21 24 -20 0
-27 536 -3 171 -8 316 -11 322 -13 20 -41 28 -73 21z"/>
<path d="M5435 4741 c-52 -13 -94 -40 -110 -72 -13 -25 -15 -54 -11 -167 3
-75 6 -159 7 -187 2 -47 -11 -176 -27 -272 -6 -39 -4 -45 29 -78 27 -27 43
-35 71 -35 43 0 59 24 58 86 -2 57 12 65 100 62 l73 -3 5 -122 c5 -110 7 -124
29 -147 34 -36 78 -43 104 -18 23 24 23 7 7 322 -14 291 -14 293 -9 442 4 116
4 117 -24 146 -15 16 -45 34 -66 41 -42 12 -188 13 -236 2z m130 -128 c19 -3
40 -18 58 -41 26 -33 28 -42 22 -87 -4 -27 -10 -87 -13 -131 -8 -88 -23 -117
-68 -128 -36 -9 -93 21 -102 53 -4 14 -6 93 -6 175 2 134 4 151 20 163 11 8
28 11 39 7 11 -3 34 -8 50 -11z"/>
<path d="M1925 4700 c-44 -17 -46 -26 -47 -296 0 -143 3 -293 7 -335 8 -74 7
-78 -21 -115 -37 -50 -39 -51 -98 -60 -63 -8 -77 7 -77 91 -2 387 -7 556 -20
571 -22 26 -88 12 -122 -26 -17 -19 -26 -38 -22 -49 3 -9 10 -62 16 -117 6
-54 13 -118 16 -142 3 -23 0 -48 -5 -55 -16 -18 -12 -294 3 -333 8 -19 31 -42
61 -60 47 -28 54 -29 169 -29 136 0 169 12 207 74 18 29 21 48 20 143 -1 60
-6 125 -12 143 -8 24 -8 45 -1 73 13 47 34 468 25 497 -4 11 -12 23 -18 27
-14 10 -56 9 -81 -2z"/>
<path d="M3565 4663 c-11 -2 -31 -6 -43 -9 -38 -8 -121 -92 -131 -133 -10 -37
-7 -232 4 -283 12 -53 155 -109 258 -101 66 6 67 5 78 -23 17 -41 17 -108 0
-128 -13 -15 -28 -17 -138 -10 -120 7 -124 6 -148 -16 -32 -30 -32 -70 0 -109
31 -36 65 -47 166 -56 74 -6 79 -5 147 29 51 25 81 49 112 88 42 53 42 53 36
118 -3 36 -6 104 -6 151 0 71 -4 91 -19 110 -19 24 -22 24 -175 22 -173 -3
-186 2 -186 60 0 36 30 91 57 105 30 16 145 32 225 32 69 0 76 2 88 24 17 33
5 92 -23 110 -22 15 -255 29 -302 19z"/>
<path d="M6325 4661 c-52 -13 -92 -39 -126 -83 l-34 -42 0 -153 c0 -179 -3
-173 115 -221 63 -26 84 -30 131 -25 32 3 65 0 76 -6 23 -12 44 -80 36 -114
-12 -46 -18 -48 -153 -41 -121 7 -128 6 -149 -15 -23 -23 -28 -70 -11 -102 18
-32 80 -56 168 -63 79 -7 85 -6 147 24 104 51 169 131 159 196 -3 16 -7 76
-10 134 -3 58 -7 115 -10 127 -7 36 -56 45 -202 37 -123 -6 -131 -5 -151 15
-25 25 -26 40 -7 84 31 73 98 97 272 97 91 0 94 3 94 68 -1 61 -20 76 -108 84
-98 8 -198 8 -237 -1z"/>
<path d="M7315 4613 c-63 -5 -75 -16 -75 -65 0 -36 3 -40 44 -58 41 -17 45
-22 50 -62 3 -24 4 -164 2 -313 -3 -280 9 -573 24 -589 6 -5 15 -4 24 3 10 8
16 9 21 1 14 -22 23 -7 43 73 30 113 41 287 38 587 -1 140 2 263 6 273 8 15
18 16 76 11 37 -4 69 -8 71 -10 2 -1 8 -31 15 -66 14 -78 13 -277 -2 -463 -16
-177 -19 -331 -9 -341 17 -18 44 17 74 98 62 164 95 385 95 633 -1 197 -10
238 -61 272 -32 22 -42 23 -210 21 -97 -1 -198 -3 -226 -5z"/>
<path d="M6778 4603 c-9 -2 -18 -10 -21 -16 -8 -23 23 -104 50 -132 28 -27 29
-27 113 -21 66 6 95 13 130 34 25 14 62 34 83 44 20 10 37 23 37 29 0 25 -52
57 -103 63 -52 7 -257 6 -289 -1z"/>
<path d="M3987 4509 c-16 -9 -17 -22 -12 -127 4 -64 11 -141 16 -170 5 -33 5
-90 -1 -149 -16 -153 8 -205 106 -232 65 -18 176 -13 248 10 100 33 104 41
107 189 1 69 -2 138 -6 154 -5 17 -1 80 10 154 l18 125 -29 24 c-32 25 -107
32 -120 11 -4 -6 -8 -64 -9 -127 -4 -380 -4 -389 -22 -406 -13 -14 -28 -16
-67 -11 -42 4 -57 12 -85 42 -33 36 -33 38 -27 98 10 89 13 357 5 382 -12 35
-93 56 -132 33z"/>
<path d="M6783 4308 c-29 -14 -30 -57 -4 -115 27 -58 48 -67 147 -59 109 8
239 61 239 96 0 43 -39 58 -180 70 -71 6 -141 13 -155 15 -14 2 -35 -1 -47 -7z"/>
<path d="M6788 4009 c-33 -19 -39 -44 -22 -93 22 -65 54 -87 123 -85 62 2 161
31 201 59 15 10 39 22 54 26 36 9 44 31 19 56 -36 35 -328 65 -375 37z"/>
</g>
</svg>
